<svg width="75" height="56" viewBox="0 0 75 56" xmlns="http://www.w3.org/2000/svg">
    <path d="M.246 26.227V.543h27.832v20.605c0 9.57-2.327 17.253-6.982 23.047C16.44 49.99 9.654 53.733.734 55.425V45.173c6.576-2.083 11.003-5.664 13.282-10.742 1.237-2.67 1.757-5.404 1.562-8.203H.246zm67.09 17.675c-4.557 5.925-11.393 9.766-20.508 11.524V45.172c6.706-2.018 11.165-5.73 13.379-11.133.911-2.148 1.367-4.753 1.367-7.812H46.34V.543h27.734v20.605c0 9.31-2.246 16.895-6.738 22.754z" fill="#fff" fill-rule="nonzero"/>
</svg>
