<svg xmlns="http://www.w3.org/2000/svg" width="24" height="24" viewBox="0 0 24 24">
    <g fill="none" fill-rule="evenodd">
        <g fill="#7B7A8E" fill-rule="nonzero">
            <g>
                <path d="M14.331 14.331c1.978-1.977 1.978-5.183 0-7.16-1.977-1.978-5.183-1.978-7.16 0-1.978 1.977-1.978 5.183 0 7.16 1.977 1.978 5.183 1.978 7.16 0zm1.194-8.354c2.408 2.409 2.616 6.184.625 8.828l4 4.002L18.957 20l-3.983-3.981c-2.65 2.13-6.537 1.966-8.997-.494-2.636-2.637-2.636-6.911 0-9.548 2.637-2.636 6.911-2.636 9.548 0z" transform="translate(-896.000000, -804.000000) translate(896.000000, 804.000000)"/>
            </g>
        </g>
    </g>
</svg>
