<?xml version="1.0" encoding="UTF-8"?>
<svg width="24px" height="24px" viewBox="0 0 24 24" version="1.1" xmlns="http://www.w3.org/2000/svg" xmlns:xlink="http://www.w3.org/1999/xlink">
    <title>8CB1FFE2-447D-4787-95BF-3C3C9D41DA66</title>
    <g id="OPGGDesignGuide" stroke="none" stroke-width="1" fill="none" fill-rule="evenodd">
        <g id="GUIDE_03Icon" transform="translate(-64.000000, -804.000000)" fill="#9AA4AF" fill-rule="nonzero">
            <g id="01-Icon-/-icon_search" transform="translate(64.000000, 804.000000)">
                <path d="M14.3312578,14.3312578 C16.3085798,12.3539358 16.3085798,9.14806342 14.3312578,7.17074141 C12.3539358,5.1934194 9.14806342,5.1934194 7.17074141,7.17074141 C5.1934194,9.14806342 5.1934194,12.3539358 7.17074141,14.3312578 C9.14806342,16.3085798 12.3539358,16.3085798 14.3312578,14.3312578 Z M15.5246772,5.97732201 C17.9329394,8.38558415 18.1413601,12.1606525 16.1499393,14.8054925 L20.1499309,18.8065806 L18.9565115,20 L14.9743641,16.0185453 C12.3234867,18.1493 8.43732206,17.9846773 5.97732201,15.5246772 C3.34089266,12.8882479 3.34089266,8.61375136 5.97732201,5.97732201 C8.61375136,3.34089266 12.8882479,3.34089266 15.5246772,5.97732201 Z" id="Mask"></path>
            </g>
        </g>
    </g>
</svg>