<svg width="75" height="56" viewBox="0 0 75 56" xmlns="http://www.w3.org/2000/svg">
    <path d="M.574 55.57V34.965c0-9.766 2.328-17.48 6.983-23.145C12.212 6.156 18.999 2.445 27.918.687v10.157c-6.64 2.083-11.1 5.664-13.379 10.742-1.172 2.67-1.66 5.436-1.465 8.3h15.332V55.57H.574zm73.633-44.726c-6.575 2.018-11.003 5.664-13.281 10.937-1.302 2.8-1.823 5.502-1.563 8.106h15.332V55.57H46.863V34.965c0-9.896 2.393-17.643 7.178-23.242 4.785-5.6 11.507-9.278 20.166-11.036v10.157z" fill="#fff" fill-rule="nonzero"/>
</svg>
